# xmcd
#
# Track frame offsets:
#	150
#	10191
#	18824
#	29581
#	40361
#	53835
#	64392
#	75452
#	86826
#	97851
#	109348
#	120457
#	131966
#	143745
#	155228
#	167425
#	177459
#	189150
#	200396
#	211458
#	222787
#	235734
#	247433
#	257849
#	269983
#	279572
#	288409
#	299532
#	311233
#	322340
#
# Disc length: 4449 seconds
#
# Revision: 0
# Processed by: cddbd v1.5.2PL0 Copyright (c) Steve Scherf et al.
# Submitted via: audiograbber 1.83.01
#
DISCID=d9115f1e
DTITLE=Willie Nelson - It's Been Rough and Rocky Travelin'- The Earliest 1954-1
DTITLE=963  CD3
DYEAR=2003
DGENRE=Country
TTITLE0=Right Or Wrong (1963)
TTITLE1=Roly Poly (1963)
TTITLE2=Let Me Talk To You (1963)
TTITLE3=The Things I Might Have Been (1963)
TTITLE4=The Way You See Me (1963)
TTITLE5=Columbus Stockade Blues (With Shirley Collie) (Version 1) (1992)
TTITLE6=Together (With Shirley Collie) (1992)
TTITLE7=You Took My Happy Away (Version 1) (1963)
TTITLE8=Second Fiddle (1963)
TTITLE9=Opportunity To Cry (1964)
TTITLE10=Lonely Little Mansion (1963)
TTITLE11=You Took My Happy Away (Version 2) (1992)
TTITLE12=Feed It A Memory (1963)
TTITLE13=I Hope So (1992)
TTITLE14=This Cold War With You (1992)
TTITLE15=Blue Must Be The Color Of The Blues (1978)
TTITLE16=Seasons Of My Heart (1975)
TTITLE17=At The Bottom (1992)
TTITLE18=I'll Walk Alone (1978)
TTITLE19=River Boy (1964)
TTITLE20=Am I Blue (1964)
TTITLE21=Take Me As I Am (Or Let Me Go) (1975)
TTITLE22=There'll Be No Teardrops Tonight (1964)
TTITLE23=Tomorrow Night (1978)
TTITLE24=Columbus Stockade Blues (Version 2) (1975)
TTITLE25=Columbus Stockade Blues (Version 3) (1992)
TTITLE26=You Wouldn't Even Cross The Street To Say Goodbye (1992)
TTITLE27=River Boy (1992)
TTITLE28=At The Bottom (1992)
TTITLE29=I Hope So (1969)
EXTD=
EXTT0=
EXTT1=
EXTT2=
EXTT3=
EXTT4=
EXTT5=
EXTT6=
EXTT7=
EXTT8=
EXTT9=
EXTT10=
EXTT11=
EXTT12=
EXTT13=
EXTT14=
EXTT15=
EXTT16=
EXTT17=
EXTT18=
EXTT19=
EXTT20=
EXTT21=
EXTT22=
EXTT23=
EXTT24=
EXTT25=
EXTT26=
EXTT27=
EXTT28=
EXTT29=
PLAYORDER=
